<?xml version="1.0" encoding="UTF-8"?>
<svg width="480" height="720" viewBox="0 0 480 720" xmlns="http://www.w3.org/2000/svg">
  <defs>
    <!-- 渐变定义 -->
    <radialGradient id="spaceGradient" cx="50%" cy="30%" r="70%">
      <stop offset="0%" style="stop-color:#1a1a2e;stop-opacity:1" />
      <stop offset="50%" style="stop-color:#16213e;stop-opacity:1" />
      <stop offset="100%" style="stop-color:#0f0f23;stop-opacity:1" />
    </radialGradient>
    
    <linearGradient id="nebulaGradient" x1="0%" y1="0%" x2="100%" y2="100%">
      <stop offset="0%" style="stop-color:#4a0e4e;stop-opacity:0.6" />
      <stop offset="50%" style="stop-color:#2d1b69;stop-opacity:0.4" />
      <stop offset="100%" style="stop-color:#1a1a2e;stop-opacity:0.3" />
    </linearGradient>
    
    <radialGradient id="starGradient" cx="50%" cy="50%" r="50%">
      <stop offset="0%" style="stop-color:#ffffff;stop-opacity:1" />
      <stop offset="100%" style="stop-color:#ffffff;stop-opacity:0" />
    </radialGradient>
    
    <radialGradient id="planetGradient" cx="30%" cy="30%" r="70%">
      <stop offset="0%" style="stop-color:#ff6b6b;stop-opacity:0.8" />
      <stop offset="50%" style="stop-color:#ee5a52;stop-opacity:0.6" />
      <stop offset="100%" style="stop-color:#d63031;stop-opacity:0.4" />
    </radialGradient>
  </defs>
  
  <!-- 背景渐变 -->
  <rect width="480" height="720" fill="url(#spaceGradient)"/>
  
  <!-- 星云效果 -->
  <ellipse cx="120" cy="150" rx="80" ry="40" fill="url(#nebulaGradient)" opacity="0.7"/>
  <ellipse cx="360" cy="300" rx="60" ry="30" fill="url(#nebulaGradient)" opacity="0.5"/>
  <ellipse cx="80" cy="500" rx="70" ry="35" fill="url(#nebulaGradient)" opacity="0.6"/>
  <ellipse cx="400" cy="600" rx="50" ry="25" fill="url(#nebulaGradient)" opacity="0.4"/>
  
  <!-- 行星 -->
  <circle cx="380" cy="120" r="25" fill="url(#planetGradient)"/>
  <circle cx="100" cy="450" r="18" fill="#74b9ff" opacity="0.8"/>
  <circle cx="420" cy="550" r="15" fill="#fdcb6e" opacity="0.7"/>
  
  <!-- 星星群 -->
  <g opacity="0.8">
    <!-- 大星星 -->
    <circle cx="50" cy="80" r="2" fill="url(#starGradient)"/>
    <circle cx="150" cy="60" r="1.5" fill="url(#starGradient)"/>
    <circle cx="280" cy="100" r="2.5" fill="url(#starGradient)"/>
    <circle cx="420" cy="80" r="1.8" fill="url(#starGradient)"/>
    <circle cx="80" cy="200" r="2" fill="url(#starGradient)"/>
    <circle cx="320" cy="180" r="1.5" fill="url(#starGradient)"/>
    <circle cx="450" cy="250" r="2.2" fill="url(#starGradient)"/>
    <circle cx="60" cy="320" r="1.8" fill="url(#starGradient)"/>
    <circle cx="200" cy="380" r="2" fill="url(#starGradient)"/>
    <circle cx="350" cy="420" r="1.5" fill="url(#starGradient)"/>
    <circle cx="120" cy="520" r="2.5" fill="url(#starGradient)"/>
    <circle cx="300" cy="580" r="1.8" fill="url(#starGradient)"/>
    <circle cx="450" cy="650" r="2" fill="url(#starGradient)"/>
    <circle cx="80" cy="680" r="1.5" fill="url(#starGradient)"/>
    
    <!-- 小星星 -->
    <circle cx="30" cy="40" r="0.8" fill="#ffffff"/>
    <circle cx="120" cy="30" r="0.6" fill="#ffffff"/>
    <circle cx="250" cy="50" r="0.7" fill="#ffffff"/>
    <circle cx="400" cy="40" r="0.8" fill="#ffffff"/>
    <circle cx="60" cy="120" r="0.6" fill="#ffffff"/>
    <circle cx="200" cy="140" r="0.7" fill="#ffffff"/>
    <circle cx="350" cy="160" r="0.8" fill="#ffffff"/>
    <circle cx="90" cy="280" r="0.6" fill="#ffffff"/>
    <circle cx="240" cy="300" r="0.7" fill="#ffffff"/>
    <circle cx="380" cy="320" r="0.8" fill="#ffffff"/>
    <circle cx="50" cy="380" r="0.6" fill="#ffffff"/>
    <circle cx="180" cy="400" r="0.7" fill="#ffffff"/>
    <circle cx="320" cy="480" r="0.8" fill="#ffffff"/>
    <circle cx="70" cy="550" r="0.6" fill="#ffffff"/>
    <circle cx="220" cy="570" r="0.7" fill="#ffffff"/>
    <circle cx="360" cy="590" r="0.8" fill="#ffffff"/>
    <circle cx="40" cy="620" r="0.6" fill="#ffffff"/>
    <circle cx="160" cy="640" r="0.7" fill="#ffffff"/>
    <circle cx="300" cy="660" r="0.8" fill="#ffffff"/>
    <circle cx="440" cy="680" r="0.6" fill="#ffffff"/>
  </g>
  
  <!-- 流星轨迹 -->
  <g opacity="0.6">
    <line x1="100" y1="50" x2="150" y2="100" stroke="#74b9ff" stroke-width="1"/>
    <line x1="300" y1="80" x2="350" y2="130" stroke="#fdcb6e" stroke-width="1"/>
    <line x1="200" y1="200" x2="250" y2="250" stroke="#ff7675" stroke-width="1"/>
    <line x1="380" y1="400" x2="430" y2="450" stroke="#a29bfe" stroke-width="1"/>
  </g>
  
  <!-- 深空细节 -->
  <g opacity="0.3">
    <!-- 星云边缘 -->
    <ellipse cx="140" cy="140" rx="100" ry="50" fill="#6c5ce7" opacity="0.2"/>
    <ellipse cx="340" cy="280" rx="80" ry="40" fill="#fd79a8" opacity="0.2"/>
    <ellipse cx="90" cy="480" rx="90" ry="45" fill="#00b894" opacity="0.2"/>
  </g>
</svg>